<mxfile host="app.diagrams.net" modified="2023-12-22T22:17:06.893Z" agent="Mozilla/5.0 (Windows NT 10.0; Win64; x64) AppleWebKit/537.36 (KHTML, like Gecko) Chrome/119.0.0.0 Safari/537.36 OPR/105.0.0.0" etag="U2WM1w2oe-kIO794_Xkc" version="22.1.11" type="device">
  <diagram name="Страница — 1" id="aXmNhxKM5Uu4Eri2liGK">
    <mxGraphModel dx="2872" dy="1441" grid="1" gridSize="10" guides="1" tooltips="1" connect="1" arrows="1" fold="1" page="1" pageScale="1" pageWidth="827" pageHeight="1169" math="0" shadow="0">
      <root>
        <mxCell id="0" />
        <mxCell id="1" parent="0" />
        <mxCell id="ZohRDArfEy2N2_62YZO6-1" value="&lt;font style=&quot;font-size: 14px;&quot;&gt;начало&lt;/font&gt;" style="ellipse;whiteSpace=wrap;html=1;" vertex="1" parent="1">
          <mxGeometry x="80" y="40" width="120" height="40" as="geometry" />
        </mxCell>
        <mxCell id="ZohRDArfEy2N2_62YZO6-9" style="edgeStyle=orthogonalEdgeStyle;rounded=0;orthogonalLoop=1;jettySize=auto;html=1;exitX=0.5;exitY=1;exitDx=0;exitDy=0;exitPerimeter=0;" edge="1" parent="1" source="ZohRDArfEy2N2_62YZO6-2" target="ZohRDArfEy2N2_62YZO6-3">
          <mxGeometry relative="1" as="geometry" />
        </mxCell>
        <mxCell id="ZohRDArfEy2N2_62YZO6-2" value="&lt;font style=&quot;font-size: 14px;&quot;&gt;цикл 1&lt;/font&gt;" style="strokeWidth=2;html=1;shape=mxgraph.flowchart.loop_limit;whiteSpace=wrap;" vertex="1" parent="1">
          <mxGeometry x="80" y="100" width="120" height="40" as="geometry" />
        </mxCell>
        <mxCell id="ZohRDArfEy2N2_62YZO6-10" style="edgeStyle=orthogonalEdgeStyle;rounded=0;orthogonalLoop=1;jettySize=auto;html=1;exitX=0.5;exitY=1;exitDx=0;exitDy=0;entryX=0.5;entryY=0;entryDx=0;entryDy=0;" edge="1" parent="1" source="ZohRDArfEy2N2_62YZO6-3" target="ZohRDArfEy2N2_62YZO6-4">
          <mxGeometry relative="1" as="geometry" />
        </mxCell>
        <mxCell id="ZohRDArfEy2N2_62YZO6-3" value="&lt;font style=&quot;font-size: 12px;&quot;&gt;очистить экран&lt;/font&gt;" style="shape=parallelogram;perimeter=parallelogramPerimeter;whiteSpace=wrap;html=1;fixedSize=1;" vertex="1" parent="1">
          <mxGeometry x="80" y="160" width="120" height="30" as="geometry" />
        </mxCell>
        <mxCell id="ZohRDArfEy2N2_62YZO6-11" style="edgeStyle=orthogonalEdgeStyle;rounded=0;orthogonalLoop=1;jettySize=auto;html=1;exitX=0.5;exitY=1;exitDx=0;exitDy=0;entryX=0.5;entryY=0;entryDx=0;entryDy=0;" edge="1" parent="1" source="ZohRDArfEy2N2_62YZO6-4" target="ZohRDArfEy2N2_62YZO6-5">
          <mxGeometry relative="1" as="geometry" />
        </mxCell>
        <mxCell id="ZohRDArfEy2N2_62YZO6-4" value="&lt;font style=&quot;font-size: 14px;&quot;&gt;ввод xz&lt;/font&gt;" style="shape=parallelogram;perimeter=parallelogramPerimeter;whiteSpace=wrap;html=1;fixedSize=1;" vertex="1" parent="1">
          <mxGeometry x="80" y="210" width="120" height="30" as="geometry" />
        </mxCell>
        <mxCell id="ZohRDArfEy2N2_62YZO6-58" style="edgeStyle=orthogonalEdgeStyle;rounded=0;orthogonalLoop=1;jettySize=auto;html=1;exitX=0.5;exitY=1;exitDx=0;exitDy=0;entryX=0.5;entryY=0;entryDx=0;entryDy=0;" edge="1" parent="1" source="ZohRDArfEy2N2_62YZO6-5" target="ZohRDArfEy2N2_62YZO6-34">
          <mxGeometry relative="1" as="geometry" />
        </mxCell>
        <mxCell id="ZohRDArfEy2N2_62YZO6-5" value="&lt;font style=&quot;font-size: 14px;&quot;&gt;xz = 1&lt;/font&gt;" style="rhombus;whiteSpace=wrap;html=1;" vertex="1" parent="1">
          <mxGeometry x="80" y="260" width="120" height="50" as="geometry" />
        </mxCell>
        <mxCell id="ZohRDArfEy2N2_62YZO6-13" style="edgeStyle=orthogonalEdgeStyle;rounded=0;orthogonalLoop=1;jettySize=auto;html=1;exitX=0.5;exitY=1;exitDx=0;exitDy=0;entryX=0.5;entryY=0;entryDx=0;entryDy=0;" edge="1" parent="1" source="ZohRDArfEy2N2_62YZO6-6" target="ZohRDArfEy2N2_62YZO6-7">
          <mxGeometry relative="1" as="geometry" />
        </mxCell>
        <mxCell id="ZohRDArfEy2N2_62YZO6-6" value="очистить экран" style="shape=parallelogram;perimeter=parallelogramPerimeter;whiteSpace=wrap;html=1;fixedSize=1;" vertex="1" parent="1">
          <mxGeometry x="240" y="320" width="120" height="30" as="geometry" />
        </mxCell>
        <mxCell id="ZohRDArfEy2N2_62YZO6-29" style="edgeStyle=orthogonalEdgeStyle;rounded=0;orthogonalLoop=1;jettySize=auto;html=1;exitX=0.5;exitY=1;exitDx=0;exitDy=0;entryX=0.5;entryY=0;entryDx=0;entryDy=0;" edge="1" parent="1" source="ZohRDArfEy2N2_62YZO6-7" target="ZohRDArfEy2N2_62YZO6-16">
          <mxGeometry relative="1" as="geometry" />
        </mxCell>
        <mxCell id="ZohRDArfEy2N2_62YZO6-7" value="&lt;font style=&quot;font-size: 14px;&quot;&gt;ввод xz&lt;/font&gt;" style="shape=parallelogram;perimeter=parallelogramPerimeter;whiteSpace=wrap;html=1;fixedSize=1;" vertex="1" parent="1">
          <mxGeometry x="240" y="370" width="120" height="30" as="geometry" />
        </mxCell>
        <mxCell id="ZohRDArfEy2N2_62YZO6-8" style="edgeStyle=orthogonalEdgeStyle;rounded=0;orthogonalLoop=1;jettySize=auto;html=1;exitX=0.5;exitY=1;exitDx=0;exitDy=0;entryX=0.5;entryY=0;entryDx=0;entryDy=0;entryPerimeter=0;" edge="1" parent="1" source="ZohRDArfEy2N2_62YZO6-1" target="ZohRDArfEy2N2_62YZO6-2">
          <mxGeometry relative="1" as="geometry" />
        </mxCell>
        <mxCell id="ZohRDArfEy2N2_62YZO6-12" style="edgeStyle=orthogonalEdgeStyle;rounded=0;orthogonalLoop=1;jettySize=auto;html=1;exitX=1;exitY=0.5;exitDx=0;exitDy=0;entryX=0.558;entryY=0;entryDx=0;entryDy=0;entryPerimeter=0;" edge="1" parent="1" source="ZohRDArfEy2N2_62YZO6-5" target="ZohRDArfEy2N2_62YZO6-6">
          <mxGeometry relative="1" as="geometry" />
        </mxCell>
        <mxCell id="ZohRDArfEy2N2_62YZO6-14" value="да" style="text;html=1;strokeColor=none;fillColor=none;align=center;verticalAlign=middle;whiteSpace=wrap;rounded=0;" vertex="1" parent="1">
          <mxGeometry x="180" y="260" width="60" height="30" as="geometry" />
        </mxCell>
        <mxCell id="ZohRDArfEy2N2_62YZO6-15" value="нет" style="text;html=1;strokeColor=none;fillColor=none;align=center;verticalAlign=middle;whiteSpace=wrap;rounded=0;" vertex="1" parent="1">
          <mxGeometry x="130" y="300" width="60" height="30" as="geometry" />
        </mxCell>
        <mxCell id="ZohRDArfEy2N2_62YZO6-23" style="edgeStyle=orthogonalEdgeStyle;rounded=0;orthogonalLoop=1;jettySize=auto;html=1;exitX=1;exitY=0.5;exitDx=0;exitDy=0;entryX=0.5;entryY=0;entryDx=0;entryDy=0;" edge="1" parent="1" source="ZohRDArfEy2N2_62YZO6-16" target="ZohRDArfEy2N2_62YZO6-19">
          <mxGeometry relative="1" as="geometry" />
        </mxCell>
        <mxCell id="ZohRDArfEy2N2_62YZO6-28" style="edgeStyle=orthogonalEdgeStyle;rounded=0;orthogonalLoop=1;jettySize=auto;html=1;exitX=0.5;exitY=1;exitDx=0;exitDy=0;entryX=0.5;entryY=0;entryDx=0;entryDy=0;" edge="1" parent="1" source="ZohRDArfEy2N2_62YZO6-16" target="ZohRDArfEy2N2_62YZO6-17">
          <mxGeometry relative="1" as="geometry" />
        </mxCell>
        <mxCell id="ZohRDArfEy2N2_62YZO6-16" value="&lt;font style=&quot;font-size: 14px;&quot;&gt;xz = 1&lt;/font&gt;" style="rhombus;whiteSpace=wrap;html=1;" vertex="1" parent="1">
          <mxGeometry x="240" y="420" width="120" height="40" as="geometry" />
        </mxCell>
        <mxCell id="ZohRDArfEy2N2_62YZO6-25" style="edgeStyle=orthogonalEdgeStyle;rounded=0;orthogonalLoop=1;jettySize=auto;html=1;exitX=1;exitY=0.5;exitDx=0;exitDy=0;entryX=0.5;entryY=0;entryDx=0;entryDy=0;" edge="1" parent="1" source="ZohRDArfEy2N2_62YZO6-17" target="ZohRDArfEy2N2_62YZO6-20">
          <mxGeometry relative="1" as="geometry" />
        </mxCell>
        <mxCell id="ZohRDArfEy2N2_62YZO6-70" style="edgeStyle=orthogonalEdgeStyle;rounded=0;orthogonalLoop=1;jettySize=auto;html=1;exitX=0.5;exitY=1;exitDx=0;exitDy=0;" edge="1" parent="1" source="ZohRDArfEy2N2_62YZO6-17">
          <mxGeometry relative="1" as="geometry">
            <mxPoint x="570" y="710" as="targetPoint" />
            <Array as="points">
              <mxPoint x="300" y="710" />
            </Array>
          </mxGeometry>
        </mxCell>
        <mxCell id="ZohRDArfEy2N2_62YZO6-17" value="&lt;font style=&quot;font-size: 14px;&quot;&gt;xz = 2&lt;/font&gt;" style="rhombus;whiteSpace=wrap;html=1;" vertex="1" parent="1">
          <mxGeometry x="240" y="570" width="120" height="45" as="geometry" />
        </mxCell>
        <mxCell id="ZohRDArfEy2N2_62YZO6-18" value="очистить экран" style="shape=parallelogram;perimeter=parallelogramPerimeter;whiteSpace=wrap;html=1;fixedSize=1;" vertex="1" parent="1">
          <mxGeometry x="240" y="320" width="120" height="30" as="geometry" />
        </mxCell>
        <mxCell id="ZohRDArfEy2N2_62YZO6-27" style="edgeStyle=orthogonalEdgeStyle;rounded=0;orthogonalLoop=1;jettySize=auto;html=1;exitX=0.5;exitY=1;exitDx=0;exitDy=0;entryX=0.5;entryY=0;entryDx=0;entryDy=0;" edge="1" parent="1" source="ZohRDArfEy2N2_62YZO6-19" target="ZohRDArfEy2N2_62YZO6-21">
          <mxGeometry relative="1" as="geometry" />
        </mxCell>
        <mxCell id="ZohRDArfEy2N2_62YZO6-19" value="очистить экран" style="shape=parallelogram;perimeter=parallelogramPerimeter;whiteSpace=wrap;html=1;fixedSize=1;" vertex="1" parent="1">
          <mxGeometry x="414" y="460" width="120" height="30" as="geometry" />
        </mxCell>
        <mxCell id="ZohRDArfEy2N2_62YZO6-26" style="edgeStyle=orthogonalEdgeStyle;rounded=0;orthogonalLoop=1;jettySize=auto;html=1;exitX=0.5;exitY=1;exitDx=0;exitDy=0;entryX=0.5;entryY=0;entryDx=0;entryDy=0;" edge="1" parent="1" source="ZohRDArfEy2N2_62YZO6-20" target="ZohRDArfEy2N2_62YZO6-22">
          <mxGeometry relative="1" as="geometry" />
        </mxCell>
        <mxCell id="ZohRDArfEy2N2_62YZO6-20" value="очистить экран" style="shape=parallelogram;perimeter=parallelogramPerimeter;whiteSpace=wrap;html=1;fixedSize=1;" vertex="1" parent="1">
          <mxGeometry x="414" y="615" width="120" height="30" as="geometry" />
        </mxCell>
        <mxCell id="ZohRDArfEy2N2_62YZO6-67" style="edgeStyle=orthogonalEdgeStyle;rounded=0;orthogonalLoop=1;jettySize=auto;html=1;exitX=1;exitY=0.5;exitDx=0;exitDy=0;" edge="1" parent="1" source="ZohRDArfEy2N2_62YZO6-21">
          <mxGeometry relative="1" as="geometry">
            <mxPoint x="140" y="1210" as="targetPoint" />
            <Array as="points">
              <mxPoint x="570" y="525" />
              <mxPoint x="570" y="1210" />
            </Array>
          </mxGeometry>
        </mxCell>
        <mxCell id="ZohRDArfEy2N2_62YZO6-21" value="&lt;font style=&quot;font-size: 14px;&quot;&gt;sortObw&lt;/font&gt;" style="shape=process;whiteSpace=wrap;html=1;backgroundOutline=1;" vertex="1" parent="1">
          <mxGeometry x="414" y="510" width="120" height="30" as="geometry" />
        </mxCell>
        <mxCell id="ZohRDArfEy2N2_62YZO6-68" style="edgeStyle=orthogonalEdgeStyle;rounded=0;orthogonalLoop=1;jettySize=auto;html=1;exitX=1;exitY=0.5;exitDx=0;exitDy=0;" edge="1" parent="1" source="ZohRDArfEy2N2_62YZO6-22">
          <mxGeometry relative="1" as="geometry">
            <mxPoint x="570" y="675" as="targetPoint" />
          </mxGeometry>
        </mxCell>
        <mxCell id="ZohRDArfEy2N2_62YZO6-22" value="&lt;font style=&quot;font-size: 14px;&quot;&gt;sortObw&lt;/font&gt;" style="shape=process;whiteSpace=wrap;html=1;backgroundOutline=1;" vertex="1" parent="1">
          <mxGeometry x="414" y="660" width="120" height="30" as="geometry" />
        </mxCell>
        <mxCell id="ZohRDArfEy2N2_62YZO6-30" value="да" style="text;html=1;strokeColor=none;fillColor=none;align=center;verticalAlign=middle;whiteSpace=wrap;rounded=0;" vertex="1" parent="1">
          <mxGeometry x="340" y="410" width="60" height="30" as="geometry" />
        </mxCell>
        <mxCell id="ZohRDArfEy2N2_62YZO6-31" value="нет" style="text;html=1;strokeColor=none;fillColor=none;align=center;verticalAlign=middle;whiteSpace=wrap;rounded=0;" vertex="1" parent="1">
          <mxGeometry x="290" y="460" width="60" height="30" as="geometry" />
        </mxCell>
        <mxCell id="ZohRDArfEy2N2_62YZO6-32" value="да" style="text;html=1;strokeColor=none;fillColor=none;align=center;verticalAlign=middle;whiteSpace=wrap;rounded=0;" vertex="1" parent="1">
          <mxGeometry x="340" y="570" width="60" height="30" as="geometry" />
        </mxCell>
        <mxCell id="ZohRDArfEy2N2_62YZO6-33" value="нет" style="text;html=1;strokeColor=none;fillColor=none;align=center;verticalAlign=middle;whiteSpace=wrap;rounded=0;" vertex="1" parent="1">
          <mxGeometry x="310" y="615" width="60" height="30" as="geometry" />
        </mxCell>
        <mxCell id="ZohRDArfEy2N2_62YZO6-76" style="edgeStyle=orthogonalEdgeStyle;rounded=0;orthogonalLoop=1;jettySize=auto;html=1;exitX=0.5;exitY=1;exitDx=0;exitDy=0;entryX=0.5;entryY=0;entryDx=0;entryDy=0;" edge="1" parent="1" source="ZohRDArfEy2N2_62YZO6-34" target="ZohRDArfEy2N2_62YZO6-59">
          <mxGeometry relative="1" as="geometry" />
        </mxCell>
        <mxCell id="ZohRDArfEy2N2_62YZO6-34" value="&lt;font style=&quot;font-size: 14px;&quot;&gt;xz = 2&lt;/font&gt;" style="rhombus;whiteSpace=wrap;html=1;" vertex="1" parent="1">
          <mxGeometry x="80" y="700" width="120" height="50" as="geometry" />
        </mxCell>
        <mxCell id="ZohRDArfEy2N2_62YZO6-35" style="edgeStyle=orthogonalEdgeStyle;rounded=0;orthogonalLoop=1;jettySize=auto;html=1;exitX=0.5;exitY=1;exitDx=0;exitDy=0;entryX=0.5;entryY=0;entryDx=0;entryDy=0;" edge="1" parent="1" source="ZohRDArfEy2N2_62YZO6-36" target="ZohRDArfEy2N2_62YZO6-38">
          <mxGeometry relative="1" as="geometry" />
        </mxCell>
        <mxCell id="ZohRDArfEy2N2_62YZO6-36" value="очистить экран" style="shape=parallelogram;perimeter=parallelogramPerimeter;whiteSpace=wrap;html=1;fixedSize=1;" vertex="1" parent="1">
          <mxGeometry x="240" y="760" width="120" height="30" as="geometry" />
        </mxCell>
        <mxCell id="ZohRDArfEy2N2_62YZO6-37" style="edgeStyle=orthogonalEdgeStyle;rounded=0;orthogonalLoop=1;jettySize=auto;html=1;exitX=0.5;exitY=1;exitDx=0;exitDy=0;entryX=0.5;entryY=0;entryDx=0;entryDy=0;" edge="1" parent="1" source="ZohRDArfEy2N2_62YZO6-38" target="ZohRDArfEy2N2_62YZO6-44">
          <mxGeometry relative="1" as="geometry" />
        </mxCell>
        <mxCell id="ZohRDArfEy2N2_62YZO6-38" value="&lt;font style=&quot;font-size: 14px;&quot;&gt;ввод xz&lt;/font&gt;" style="shape=parallelogram;perimeter=parallelogramPerimeter;whiteSpace=wrap;html=1;fixedSize=1;" vertex="1" parent="1">
          <mxGeometry x="240" y="810" width="120" height="30" as="geometry" />
        </mxCell>
        <mxCell id="ZohRDArfEy2N2_62YZO6-39" style="edgeStyle=orthogonalEdgeStyle;rounded=0;orthogonalLoop=1;jettySize=auto;html=1;exitX=1;exitY=0.5;exitDx=0;exitDy=0;entryX=0.558;entryY=0;entryDx=0;entryDy=0;entryPerimeter=0;" edge="1" parent="1" source="ZohRDArfEy2N2_62YZO6-34" target="ZohRDArfEy2N2_62YZO6-36">
          <mxGeometry relative="1" as="geometry" />
        </mxCell>
        <mxCell id="ZohRDArfEy2N2_62YZO6-40" value="да" style="text;html=1;strokeColor=none;fillColor=none;align=center;verticalAlign=middle;whiteSpace=wrap;rounded=0;" vertex="1" parent="1">
          <mxGeometry x="180" y="700" width="60" height="30" as="geometry" />
        </mxCell>
        <mxCell id="ZohRDArfEy2N2_62YZO6-41" value="нет" style="text;html=1;strokeColor=none;fillColor=none;align=center;verticalAlign=middle;whiteSpace=wrap;rounded=0;" vertex="1" parent="1">
          <mxGeometry x="130" y="740" width="60" height="30" as="geometry" />
        </mxCell>
        <mxCell id="ZohRDArfEy2N2_62YZO6-42" style="edgeStyle=orthogonalEdgeStyle;rounded=0;orthogonalLoop=1;jettySize=auto;html=1;exitX=1;exitY=0.5;exitDx=0;exitDy=0;entryX=0.5;entryY=0;entryDx=0;entryDy=0;" edge="1" parent="1" source="ZohRDArfEy2N2_62YZO6-44" target="ZohRDArfEy2N2_62YZO6-49">
          <mxGeometry relative="1" as="geometry" />
        </mxCell>
        <mxCell id="ZohRDArfEy2N2_62YZO6-43" style="edgeStyle=orthogonalEdgeStyle;rounded=0;orthogonalLoop=1;jettySize=auto;html=1;exitX=0.5;exitY=1;exitDx=0;exitDy=0;entryX=0.5;entryY=0;entryDx=0;entryDy=0;" edge="1" parent="1" source="ZohRDArfEy2N2_62YZO6-44" target="ZohRDArfEy2N2_62YZO6-46">
          <mxGeometry relative="1" as="geometry" />
        </mxCell>
        <mxCell id="ZohRDArfEy2N2_62YZO6-44" value="&lt;font style=&quot;font-size: 14px;&quot;&gt;xz = 1&lt;/font&gt;" style="rhombus;whiteSpace=wrap;html=1;" vertex="1" parent="1">
          <mxGeometry x="240" y="860" width="120" height="40" as="geometry" />
        </mxCell>
        <mxCell id="ZohRDArfEy2N2_62YZO6-45" style="edgeStyle=orthogonalEdgeStyle;rounded=0;orthogonalLoop=1;jettySize=auto;html=1;exitX=1;exitY=0.5;exitDx=0;exitDy=0;entryX=0.5;entryY=0;entryDx=0;entryDy=0;" edge="1" parent="1" source="ZohRDArfEy2N2_62YZO6-46" target="ZohRDArfEy2N2_62YZO6-51">
          <mxGeometry relative="1" as="geometry" />
        </mxCell>
        <mxCell id="ZohRDArfEy2N2_62YZO6-74" style="edgeStyle=orthogonalEdgeStyle;rounded=0;orthogonalLoop=1;jettySize=auto;html=1;exitX=0.5;exitY=1;exitDx=0;exitDy=0;" edge="1" parent="1" source="ZohRDArfEy2N2_62YZO6-46">
          <mxGeometry relative="1" as="geometry">
            <mxPoint x="570" y="1140" as="targetPoint" />
            <Array as="points">
              <mxPoint x="300" y="1140" />
            </Array>
          </mxGeometry>
        </mxCell>
        <mxCell id="ZohRDArfEy2N2_62YZO6-46" value="&lt;font style=&quot;font-size: 14px;&quot;&gt;xz = 2&lt;/font&gt;" style="rhombus;whiteSpace=wrap;html=1;" vertex="1" parent="1">
          <mxGeometry x="240" y="1000" width="120" height="45" as="geometry" />
        </mxCell>
        <mxCell id="ZohRDArfEy2N2_62YZO6-48" style="edgeStyle=orthogonalEdgeStyle;rounded=0;orthogonalLoop=1;jettySize=auto;html=1;exitX=0.5;exitY=1;exitDx=0;exitDy=0;entryX=0.5;entryY=0;entryDx=0;entryDy=0;" edge="1" parent="1" source="ZohRDArfEy2N2_62YZO6-49" target="ZohRDArfEy2N2_62YZO6-52">
          <mxGeometry relative="1" as="geometry" />
        </mxCell>
        <mxCell id="ZohRDArfEy2N2_62YZO6-49" value="очистить экран" style="shape=parallelogram;perimeter=parallelogramPerimeter;whiteSpace=wrap;html=1;fixedSize=1;" vertex="1" parent="1">
          <mxGeometry x="414" y="900" width="120" height="30" as="geometry" />
        </mxCell>
        <mxCell id="ZohRDArfEy2N2_62YZO6-50" style="edgeStyle=orthogonalEdgeStyle;rounded=0;orthogonalLoop=1;jettySize=auto;html=1;exitX=0.5;exitY=1;exitDx=0;exitDy=0;entryX=0.5;entryY=0;entryDx=0;entryDy=0;" edge="1" parent="1" source="ZohRDArfEy2N2_62YZO6-51" target="ZohRDArfEy2N2_62YZO6-53">
          <mxGeometry relative="1" as="geometry" />
        </mxCell>
        <mxCell id="ZohRDArfEy2N2_62YZO6-51" value="очистить экран" style="shape=parallelogram;perimeter=parallelogramPerimeter;whiteSpace=wrap;html=1;fixedSize=1;" vertex="1" parent="1">
          <mxGeometry x="414" y="1045" width="120" height="30" as="geometry" />
        </mxCell>
        <mxCell id="ZohRDArfEy2N2_62YZO6-71" style="edgeStyle=orthogonalEdgeStyle;rounded=0;orthogonalLoop=1;jettySize=auto;html=1;exitX=1;exitY=0.5;exitDx=0;exitDy=0;" edge="1" parent="1" source="ZohRDArfEy2N2_62YZO6-52">
          <mxGeometry relative="1" as="geometry">
            <mxPoint x="570" y="965" as="targetPoint" />
          </mxGeometry>
        </mxCell>
        <mxCell id="ZohRDArfEy2N2_62YZO6-52" value="&lt;font style=&quot;font-size: 14px;&quot;&gt;sortLoc&lt;/font&gt;" style="shape=process;whiteSpace=wrap;html=1;backgroundOutline=1;" vertex="1" parent="1">
          <mxGeometry x="414" y="950" width="120" height="30" as="geometry" />
        </mxCell>
        <mxCell id="ZohRDArfEy2N2_62YZO6-72" style="edgeStyle=orthogonalEdgeStyle;rounded=0;orthogonalLoop=1;jettySize=auto;html=1;exitX=1;exitY=0.5;exitDx=0;exitDy=0;" edge="1" parent="1" source="ZohRDArfEy2N2_62YZO6-53">
          <mxGeometry relative="1" as="geometry">
            <mxPoint x="570" y="1105" as="targetPoint" />
          </mxGeometry>
        </mxCell>
        <mxCell id="ZohRDArfEy2N2_62YZO6-53" value="&lt;font style=&quot;font-size: 14px;&quot;&gt;sortLoc&lt;/font&gt;" style="shape=process;whiteSpace=wrap;html=1;backgroundOutline=1;" vertex="1" parent="1">
          <mxGeometry x="414" y="1090" width="120" height="30" as="geometry" />
        </mxCell>
        <mxCell id="ZohRDArfEy2N2_62YZO6-54" value="да" style="text;html=1;strokeColor=none;fillColor=none;align=center;verticalAlign=middle;whiteSpace=wrap;rounded=0;" vertex="1" parent="1">
          <mxGeometry x="340" y="850" width="60" height="30" as="geometry" />
        </mxCell>
        <mxCell id="ZohRDArfEy2N2_62YZO6-55" value="нет" style="text;html=1;strokeColor=none;fillColor=none;align=center;verticalAlign=middle;whiteSpace=wrap;rounded=0;" vertex="1" parent="1">
          <mxGeometry x="290" y="890" width="60" height="30" as="geometry" />
        </mxCell>
        <mxCell id="ZohRDArfEy2N2_62YZO6-56" value="да" style="text;html=1;strokeColor=none;fillColor=none;align=center;verticalAlign=middle;whiteSpace=wrap;rounded=0;" vertex="1" parent="1">
          <mxGeometry x="340" y="1000" width="60" height="30" as="geometry" />
        </mxCell>
        <mxCell id="ZohRDArfEy2N2_62YZO6-57" value="нет" style="text;html=1;strokeColor=none;fillColor=none;align=center;verticalAlign=middle;whiteSpace=wrap;rounded=0;" vertex="1" parent="1">
          <mxGeometry x="290" y="1040" width="60" height="30" as="geometry" />
        </mxCell>
        <mxCell id="ZohRDArfEy2N2_62YZO6-66" style="edgeStyle=orthogonalEdgeStyle;rounded=0;orthogonalLoop=1;jettySize=auto;html=1;exitX=1;exitY=0.5;exitDx=0;exitDy=0;entryX=0;entryY=0.5;entryDx=0;entryDy=0;" edge="1" parent="1" source="ZohRDArfEy2N2_62YZO6-59" target="ZohRDArfEy2N2_62YZO6-60">
          <mxGeometry relative="1" as="geometry" />
        </mxCell>
        <mxCell id="ZohRDArfEy2N2_62YZO6-59" value="&lt;font style=&quot;font-size: 14px;&quot;&gt;xz = 3&lt;/font&gt;" style="rhombus;whiteSpace=wrap;html=1;" vertex="1" parent="1">
          <mxGeometry x="80" y="1150" width="120" height="50" as="geometry" />
        </mxCell>
        <mxCell id="ZohRDArfEy2N2_62YZO6-73" style="edgeStyle=orthogonalEdgeStyle;rounded=0;orthogonalLoop=1;jettySize=auto;html=1;exitX=1;exitY=0.5;exitDx=0;exitDy=0;" edge="1" parent="1" source="ZohRDArfEy2N2_62YZO6-60">
          <mxGeometry relative="1" as="geometry">
            <mxPoint x="570" y="1175" as="targetPoint" />
          </mxGeometry>
        </mxCell>
        <mxCell id="ZohRDArfEy2N2_62YZO6-60" value="завершить программу" style="rounded=0;whiteSpace=wrap;html=1;" vertex="1" parent="1">
          <mxGeometry x="240" y="1155" width="120" height="40" as="geometry" />
        </mxCell>
        <mxCell id="ZohRDArfEy2N2_62YZO6-65" style="edgeStyle=orthogonalEdgeStyle;rounded=0;orthogonalLoop=1;jettySize=auto;html=1;exitX=0.5;exitY=0;exitDx=0;exitDy=0;exitPerimeter=0;entryX=0.5;entryY=0;entryDx=0;entryDy=0;" edge="1" parent="1" source="ZohRDArfEy2N2_62YZO6-61" target="ZohRDArfEy2N2_62YZO6-63">
          <mxGeometry relative="1" as="geometry" />
        </mxCell>
        <mxCell id="ZohRDArfEy2N2_62YZO6-61" value="" style="strokeWidth=2;html=1;shape=mxgraph.flowchart.loop_limit;whiteSpace=wrap;rotation=-180;" vertex="1" parent="1">
          <mxGeometry x="80" y="1230" width="120" height="40" as="geometry" />
        </mxCell>
        <mxCell id="ZohRDArfEy2N2_62YZO6-62" value="&lt;font style=&quot;font-size: 14px;&quot;&gt;цикл 1&lt;br&gt;xz = 3&lt;/font&gt;" style="text;html=1;strokeColor=none;fillColor=none;align=center;verticalAlign=middle;whiteSpace=wrap;rounded=0;" vertex="1" parent="1">
          <mxGeometry x="110" y="1247.5" width="60" height="5" as="geometry" />
        </mxCell>
        <mxCell id="ZohRDArfEy2N2_62YZO6-63" value="&lt;font style=&quot;font-size: 14px;&quot;&gt;конец&lt;/font&gt;" style="ellipse;whiteSpace=wrap;html=1;" vertex="1" parent="1">
          <mxGeometry x="80" y="1290" width="120" height="40" as="geometry" />
        </mxCell>
        <mxCell id="ZohRDArfEy2N2_62YZO6-64" style="edgeStyle=orthogonalEdgeStyle;rounded=0;orthogonalLoop=1;jettySize=auto;html=1;exitX=0.5;exitY=1;exitDx=0;exitDy=0;entryX=0.5;entryY=1;entryDx=0;entryDy=0;entryPerimeter=0;" edge="1" parent="1" source="ZohRDArfEy2N2_62YZO6-59" target="ZohRDArfEy2N2_62YZO6-61">
          <mxGeometry relative="1" as="geometry" />
        </mxCell>
        <mxCell id="ZohRDArfEy2N2_62YZO6-75" value="да" style="text;html=1;strokeColor=none;fillColor=none;align=center;verticalAlign=middle;whiteSpace=wrap;rounded=0;" vertex="1" parent="1">
          <mxGeometry x="180" y="1150" width="60" height="30" as="geometry" />
        </mxCell>
        <mxCell id="ZohRDArfEy2N2_62YZO6-77" value="нет" style="text;html=1;strokeColor=none;fillColor=none;align=center;verticalAlign=middle;whiteSpace=wrap;rounded=0;" vertex="1" parent="1">
          <mxGeometry x="130" y="1190" width="60" height="30" as="geometry" />
        </mxCell>
      </root>
    </mxGraphModel>
  </diagram>
</mxfile>
